<svg><symbol id="youtube-btn" viewBox="0 0 68 48" width="68" height="48"><path d="M66.52,7.74c-0.78-2.93-2.49-5.41-5.42-6.19C55.79,.13,34,0,34,0S12.21,.13,6.9,1.55 C3.97,2.33,2.27,4.81,1.48,7.74C0.06,13.05,0,24,0,24s0.06,10.95,1.48,16.26c0.78,2.93,2.49,5.41,5.42,6.19 C12.21,47.87,34,48,34,48s21.79-0.13,27.1-1.55c2.93-0.78,4.64-3.26,5.42-6.19C67.94,34.95,68,24,68,24S67.94,13.05,66.52,7.74z"></path><path d="M 45,24 27,14 27,34" fill="#fff"></path></symbol><symbol id="icon-flag-cz" viewBox="0 0 512 512"><rect y="85.337" style="fill:#0052B4;" width="512" height="341.326"/><polygon style="fill:#D80027;" points="512,256 512,426.663 0,426.663 215.185,256 "/><polygon style="fill:#F0F0F0;" points="512,85.337 512,256 215.185,256 0,85.337 "/></symbol><symbol id="icon-flag-en" viewBox="0 0 512 512"><rect y="85.333" style="fill:#F0F0F0;" width="512" height="341.337"/><polygon style="fill:#D80027;" points="288,85.33 224,85.33 224,223.996 0,223.996 0,287.996 224,287.996 224,426.662 288,426.662 288,287.996 512,287.996 512,223.996 288,223.996"/><polygon style="fill:#0052B4;" points="393.785,315.358 512,381.034 512,315.358"/><polygon style="fill:#0052B4;" points="311.652,315.358 512,426.662 512,395.188 368.307,315.358"/><polygon style="fill:#0052B4;" points="458.634,426.662 311.652,344.998 311.652,426.662"/><polygon style="fill:#F0F0F0;" points="311.652,315.358 512,426.662 512,395.188 368.307,315.358"/><polygon style="fill:#D80027;" points="311.652,315.358 512,426.662 512,395.188 368.307,315.358"/><polygon style="fill:#0052B4;" points="90.341,315.356 0,365.546 0,315.356"/><polygon style="fill:#0052B4;" points="200.348,329.51 200.348,426.661 25.491,426.661"/><polygon style="fill:#D80027;" points="143.693,315.358 0,395.188 0,426.662 0,426.662 200.348,315.358"/><polygon style="fill:#0052B4;" points="118.215,196.634 0,130.958 0,196.634"/><polygon style="fill:#0052B4;" points="200.348,196.634 0,85.33 0,116.804 143.693,196.634"/><polygon style="fill:#0052B4;" points="53.366,85.33 200.348,166.994 200.348,85.33"/><polygon style="fill:#F0F0F0;" points="200.348,196.634 0,85.33 0,116.804 143.693,196.634"/><polygon style="fill:#D80027;" points="200.348,196.634 0,85.33 0,116.804 143.693,196.634"/><polygon style="fill:#0052B4;" points="421.659,196.636 512,146.446 512,196.636"/><polygon style="fill:#0052B4;" points="311.652,182.482 311.652,85.331 486.509,85.331"/><polygon style="fill:#D80027;" points="368.307,196.634 512,116.804 512,85.33 512,85.33 311.652,196.634 "/></symbol><symbol id="icon-flag-de" viewBox="0 0 512 512"><path style="fill:#464655;" d="M512,200.093H0V97.104c0-4.875,3.953-8.828,8.828-8.828h494.345c4.875,0,8.828,3.953,8.828,8.828 L512,200.093L512,200.093z"/><path style="fill:#FFE15A;" d="M503.172,423.725H8.828c-4.875,0-8.828-3.953-8.828-8.828V311.909h512v102.988 C512,419.773,508.047,423.725,503.172,423.725z"/><rect y="200.091" style="fill:#FF4B55;" width="512" height="111.81"/></symbol></svg>
